<svg width="84" height="11" viewBox="0 0 84 11" fill="none" xmlns="http://www.w3.org/2000/svg">
<path fill-rule="evenodd" clip-rule="evenodd" d="M13.9777 2.591C13.2492 2.591 12.7442 2.90608 12.44 3.41214V2.69671L10.8868 2.6962L10.8843 8.55243C10.8838 10.1304 12.435 10.2131 12.435 10.2131L12.4365 7.04445C12.689 7.50354 13.1939 7.82219 13.9409 7.82219C15.1351 7.8227 16.1579 6.73959 16.1584 5.19638C16.1594 3.65215 15.1609 2.59202 13.9777 2.591ZM13.4935 6.4317C12.8272 6.43119 12.39 5.98385 12.3905 5.19438C12.3905 4.45188 12.8287 3.99229 13.4945 3.99229C14.1494 3.9928 14.5622 4.4529 14.5617 5.1954C14.5617 5.98487 14.1484 6.4317 13.4935 6.4317Z" fill="black"/>
<path fill-rule="evenodd" clip-rule="evenodd" d="M26.3893 3.1599L26.3734 3.15326L26.3879 3.1599H26.3893Z" fill="black"/>
<path fill-rule="evenodd" clip-rule="evenodd" d="M29.6517 6.26986C29.5476 6.34033 29.3628 6.4823 29.1094 6.48179C28.8669 6.48127 28.7055 6.37404 28.707 5.86593L28.7105 3.90398C29.7876 3.83249 29.9664 2.77696 29.9709 2.58699H29.9704L28.714 2.58444L28.719 0.00357461L27.1737 0L27.1682 2.58087L26.3555 2.57933L26.3525 3.90398L27.1543 3.90551H27.1657L27.1618 5.81538C27.1603 6.46493 27.2917 6.92912 27.5198 7.24828C27.8231 7.67264 28.2982 7.84014 28.8644 7.84116C29.579 7.84269 29.9948 7.58328 30.2373 7.38259L29.6517 6.26986Z" fill="black"/>
<path fill-rule="evenodd" clip-rule="evenodd" d="M18.5164 3.41475C18.8755 2.7657 19.3924 2.60842 19.8525 2.60944C20.1752 2.61046 20.4152 2.70596 20.6109 2.81268L20.1139 4.25938C19.9192 4.1644 19.7345 4.10567 19.5169 4.10516C18.8162 4.10312 18.4362 4.43351 18.4338 5.50436L18.4293 7.73747H16.8776L16.888 2.70902V2.61965C16.888 2.61965 18.0463 2.68349 18.3586 3.72063C18.3984 3.64199 18.5164 3.41475 18.5164 3.41475Z" fill="black"/>
<path fill-rule="evenodd" clip-rule="evenodd" d="M23.3906 2.61713C21.8737 2.61407 20.6885 3.7079 20.6856 5.23834C20.6826 6.75908 21.8628 7.84576 23.3796 7.84883C24.896 7.8524 26.0707 6.77083 26.0737 5.2506C26.0767 3.71964 24.9069 2.62071 23.3906 2.61713ZM23.3821 6.50575C22.6939 6.50422 22.2696 5.98437 22.2711 5.24188C22.2726 4.48763 22.6994 3.98259 23.3876 3.98412C24.0773 3.98566 24.4901 4.49274 24.4886 5.24698C24.4871 5.98948 24.0718 6.50729 23.3821 6.50575Z" fill="black"/>
<path fill-rule="evenodd" clip-rule="evenodd" d="M33.1519 2.6385C31.6356 2.63543 30.4499 3.71752 30.4469 5.23621C30.4434 6.77993 31.5669 7.86713 33.3143 7.8707C34.3361 7.87274 34.9342 7.55562 35.4058 7.13178L34.5234 6.15233C34.2814 6.32902 33.8566 6.55065 33.2934 6.54963C32.5922 6.54809 32.1799 6.25345 32.0315 5.73411L35.742 5.74228C35.8605 3.98919 34.9093 2.64258 33.1519 2.6385ZM32.0102 4.81599C32.1381 4.21495 32.552 3.93306 33.161 3.93409C33.77 3.93562 34.1131 4.26704 34.1809 4.82059L32.0102 4.81599Z" fill="black"/>
<path fill-rule="evenodd" clip-rule="evenodd" d="M39.8349 5.4456C39.8335 6.08188 39.4874 6.44649 38.8679 6.44547C38.3161 6.44394 38.0517 6.11252 38.0527 5.54722L38.0586 2.7529H36.5084L36.5025 5.65037C36.4995 7.07562 37.2559 7.8794 38.3246 7.88195C39.0018 7.88348 39.6363 7.49283 39.937 6.89281C40.2836 7.85233 41.3807 7.91208 41.3807 7.91208L41.3911 2.7529H39.8404L39.8349 5.4456Z" fill="black"/>
<path fill-rule="evenodd" clip-rule="evenodd" d="M44.8095 4.65563C44.1437 4.50039 43.834 4.46465 43.835 4.18174C43.835 3.98156 44.0063 3.88862 44.3638 3.88964C44.7308 3.89016 45.0749 4.06684 45.305 4.26702L46.1336 3.36265C45.7323 2.93727 45.1591 2.66509 44.3548 2.66355C43.3091 2.661 42.4575 3.11855 42.455 4.25017C42.4531 5.29804 43.1995 5.67695 43.8658 5.85568C44.6571 6.06965 44.9674 6.07016 44.9669 6.34132C44.9669 6.55324 44.8055 6.64669 44.3006 6.64567C43.8404 6.64465 43.4171 6.44396 43.084 6.11203L42.1747 6.9347C42.5975 7.45404 43.2633 7.89269 44.4007 7.89525C45.9399 7.89831 46.413 7.14407 46.415 6.22642C46.417 5.16527 45.5221 4.82211 44.8095 4.65563Z" fill="black"/>
<path fill-rule="evenodd" clip-rule="evenodd" d="M53.7981 1.53602C53.7981 1.12392 54.2707 0.816507 54.6571 1.15712C54.7019 1.19644 54.7378 1.24444 54.7612 1.29959C54.9295 1.69024 54.6546 2.05128 54.3001 2.05128C54.0287 2.05128 53.7981 1.82455 53.7981 1.53602ZM53.9283 2.75242H54.6813V7.73542H53.9283V2.75242Z" fill="black"/>
<path fill-rule="evenodd" clip-rule="evenodd" d="M55.7285 7.07613L56.1199 6.52002C56.4411 6.90149 57.0541 7.23086 57.7165 7.23086C58.4599 7.23086 58.8618 6.87034 58.8618 6.37602C58.8618 5.17138 55.859 5.91285 55.859 4.06938C55.859 3.29726 56.5118 2.638 57.6667 2.638C58.4903 2.638 59.0725 2.95716 59.4644 3.35905L59.1128 3.89422C58.8215 3.5337 58.2891 3.26611 57.6667 3.26611C57.0038 3.26611 56.592 3.6057 56.592 4.04844C56.592 5.14023 59.5948 4.41969 59.5948 6.35559C59.5948 7.19001 58.942 7.85897 57.6866 7.85897C56.8933 7.85897 56.2205 7.61181 55.7285 7.07613Z" fill="black"/>
<path fill-rule="evenodd" clip-rule="evenodd" d="M60.3503 5.24338C60.3503 3.77064 61.3244 2.638 62.771 2.638C63.6545 2.638 64.1768 3.00874 64.5483 3.50306L64.0464 3.97644C63.7247 3.52348 63.3128 3.3279 62.8109 3.3279C61.7766 3.3279 61.1337 4.14138 61.1337 5.24338C61.1337 6.34538 61.7766 7.16907 62.8109 7.16907C63.3128 7.16907 63.7247 6.96276 64.0464 6.52002L64.5483 6.99392C64.1768 7.48823 63.6545 7.85897 62.771 7.85897C61.3244 7.85897 60.3503 6.72633 60.3503 5.24338Z" fill="black"/>
<path fill-rule="evenodd" clip-rule="evenodd" d="M65.333 5.24338C65.333 3.80179 66.2568 2.638 67.7333 2.638C69.2093 2.638 70.1331 3.80179 70.1331 5.24338C70.1331 6.68497 69.2093 7.85897 67.7333 7.85897C66.2568 7.85897 65.333 6.68497 65.333 5.24338ZM69.3404 5.24344C69.3404 4.23438 68.7677 3.32797 67.7334 3.32797C66.6986 3.32797 66.1164 4.23438 66.1164 5.24344C66.1164 6.26272 66.6986 7.16914 67.7334 7.16914C68.7677 7.16914 69.3404 6.26272 69.3404 5.24344Z" fill="black"/>
<path fill-rule="evenodd" clip-rule="evenodd" d="M72.4866 7.73541L70.4683 2.75241H71.2815L72.8984 6.83972L74.5049 2.75241H75.3286L73.3102 7.73541H72.4866Z" fill="black"/>
<path fill-rule="evenodd" clip-rule="evenodd" d="M75.5614 5.24338C75.5614 3.80179 76.5658 2.638 77.9512 2.638C79.4178 2.638 80.2813 3.812 80.2813 5.30517V5.50075H76.3547C76.4149 6.43781 77.0573 7.22065 78.1021 7.22065C78.6544 7.22065 79.2166 6.99392 79.598 6.59203L79.9596 7.09707C79.478 7.59087 78.8252 7.85897 78.0314 7.85897C76.5957 7.85897 75.5614 6.79833 75.5614 5.24338ZM77.9408 3.27632C76.9065 3.27632 76.3941 4.17201 76.3543 4.93442H79.5374C79.5274 4.19295 79.0459 3.27632 77.9408 3.27632Z" fill="black"/>
<path fill-rule="evenodd" clip-rule="evenodd" d="M84.0001 2.7008C83.8975 2.67629 83.788 2.65893 83.6625 2.65893L83.6615 2.65842C82.9997 2.65893 82.4375 3.03937 82.0465 3.56381C81.9554 3.0363 81.5555 2.73246 81.2941 2.65842L81.2926 7.73538H82.0456V4.21337C82.1138 4.08979 82.2208 3.96723 82.3503 3.85642C82.6401 3.60824 83.0415 3.42032 83.3612 3.42032L83.4319 3.42236C83.5216 3.42287 83.6271 3.44228 83.7342 3.47036L84.0001 2.7008Z" fill="black"/>
<path fill-rule="evenodd" clip-rule="evenodd" d="M51.8653 1.24293V3.51331C51.4734 2.96742 50.8808 2.63804 50.228 2.63804C48.9526 2.63804 48.0692 3.66804 48.0692 5.25363C48.0692 6.87038 48.9631 7.85901 50.228 7.85901C50.9112 7.85901 51.5038 7.499 51.8653 6.99396V7.73543H52.6188V0.249695C52.2244 0.36204 51.9316 0.66486 51.8653 1.24293ZM51.8652 6.3863C51.5943 6.81883 51.0116 7.16914 50.4091 7.16914C49.435 7.16914 48.8524 6.35566 48.8524 5.25366C48.8524 4.15166 49.435 3.32797 50.4091 3.32797C51.0116 3.32797 51.5943 3.6987 51.8652 4.13123V6.3863Z" fill="black"/>
<mask id="mask0" mask-type="alpha" maskUnits="userSpaceOnUse" x="0" y="0" width="9" height="11">
<path fill-rule="evenodd" clip-rule="evenodd" d="M0 0.684448H8.90359V10.6141H0" fill="white"/>
</mask>
<g mask="url(#mask0)">
<path fill-rule="evenodd" clip-rule="evenodd" d="M8.58082 4.84197L6.59658 2.78588L5.53377 1.68458L4.56858 0.684448C4.08144 1.18908 4.12491 2.05378 4.65841 2.63428L4.65914 2.63518C4.66824 2.64491 6.45837 4.49941 6.45837 4.49941C7.07131 5.13454 7.07131 6.16401 6.45837 6.79899C6.45837 6.79899 5.98004 7.29225 5.97094 7.30168C5.41086 7.88203 5.35858 8.76858 5.8541 9.28204L7.8821 7.18061L8.58082 6.45658C9.01106 6.01076 9.01106 5.28779 8.58082 4.84197Z" fill="black"/>
</g>
<path fill-rule="evenodd" clip-rule="evenodd" d="M5.45944 4.69877C4.91678 4.14228 4.03704 4.14228 3.49452 4.69877C2.95186 5.25526 2.95186 6.15741 3.49452 6.71375C4.03704 7.27024 4.91678 7.27024 5.45944 6.71375C6.00211 6.15741 6.00211 5.25526 5.45944 4.69877Z" fill="black"/>
<path fill-rule="evenodd" clip-rule="evenodd" d="M4.20617 8.67524L4.20546 8.6745C4.19659 8.66468 2.42272 6.82062 2.42272 6.82062C1.81555 6.18922 1.81555 5.1654 2.42272 4.534C2.42272 4.534 2.89667 4.04367 2.90568 4.03415C3.46062 3.45706 3.51243 2.57551 3.02145 2.06494L0.319721 4.87448C-0.106574 5.31793 -0.106574 6.03669 0.319721 6.47999L2.28577 8.5245L4.29518 10.6141C4.77786 10.1123 4.73479 9.25248 4.20617 8.67524Z" fill="black"/>
</svg>
