<?xml version="1.0" encoding="UTF-8"?>
<svg width="182px" height="23px" viewBox="0 0 182 23" version="1.1" xmlns="http://www.w3.org/2000/svg" xmlns:xlink="http://www.w3.org/1999/xlink">
    <!-- Generator: Sketch 46.2 (44496) - http://www.bohemiancoding.com/sketch -->
    <title>Proteus Discover orange rgb</title>
    <desc>Created with Sketch.</desc>
    <defs></defs>
    <g id="Page-1" stroke="none" stroke-width="1" fill="none" fill-rule="evenodd">
        <g id="Desktop-Min-(1024px)-Hep-C" transform="translate(-69.000000, -579.000000)" fill="#FFFFFF">
            <g id="Block-1:-home-screen">
                <g id="PD-logo" transform="translate(0.000000, 560.000000)">
                    <g id="Proteus-Discover-orange-rgb" transform="translate(69.000000, 19.000000)">
                        <path d="M32.2431585,13.8289863 C30.8304155,13.8283562 29.9024718,12.9181233 29.9031127,11.3128493 C29.9037535,9.8030411 30.832338,8.86728767 32.2454014,8.86791781 C33.6344331,8.86854795 34.5101479,9.80493151 34.509507,11.3150548 C34.5088662,12.9200137 33.6318697,13.8296164 32.2431585,13.8289863 Z M33.2697923,6.01780822 C31.7240739,6.01717808 30.6532218,6.6589726 30.0078908,7.68735616 L30.0085317,6.23205479 L26.7139472,6.23173973 L26.7085,18.142274 C26.7068979,21.3525068 29.9979577,21.5207534 29.9979577,21.5207534 L30.0008415,15.0753973 C30.5359472,16.0098904 31.6071197,16.6573562 33.1919296,16.6579863 C35.7251901,16.6592466 37.8947711,14.4559726 37.8960528,11.3163151 C37.8976549,8.17634247 35.7806232,6.01906849 33.2697923,6.01780822 L33.2697923,6.01780822 Z" id="Fill-1"></path>
                        <path d="M59.6202866,7.18314633 C59.602193,7.17478269 59.5830351,7.16694178 59.5633451,7.16119178 C59.5819708,7.16694178 59.599,7.17478269 59.6160293,7.18314633 L59.6202866,7.18314633" id="Fill-2"></path>
                        <path d="M66.5174754,13.5003699 C66.2970246,13.6440411 65.9051479,13.9320137 65.3671585,13.9310685 C64.8528803,13.9298082 64.5113099,13.712726 64.5138732,12.6783562 L64.521243,8.68738356 C66.8058556,8.54308219 67.1855563,6.39620548 67.1945282,6.00930137 L67.1942077,6.00930137 L64.5282923,6.00363014 L64.5398275,0.754273973 L64.5388662,0.754273973 L61.2615845,0.747342466 L61.2503697,5.99669863 L59.5258556,5.99323288 L59.520088,8.68738356 L61.22025,8.69084932 L61.2446021,8.69084932 L61.2359507,12.5750137 C61.2330669,13.8970411 61.5111937,14.8413014 61.9950317,15.4903425 C62.6387606,16.3536301 63.6468099,16.693274 64.8471127,16.6957945 C66.3636725,16.6989452 67.2454754,16.1715205 67.7600739,15.7638219 L66.5174754,13.5003699" id="Fill-3"></path>
                        <path d="M42.8975282,7.69271233 C43.6591725,6.37194521 44.7556585,6.05309589 45.7316655,6.05530137 C46.4151268,6.05656164 46.924919,6.25127397 47.3398662,6.4680411 L46.2863169,9.41141096 C45.8732923,9.21764384 45.4810951,9.09791781 45.0190458,9.0969726 C43.5329261,9.09382192 42.7270634,9.76523288 42.7225775,11.9429863 L42.7126444,16.4856438 L39.4203028,16.4856438 L39.4430528,6.07546575 C39.4430528,6.07546575 41.9000528,6.20527397 42.5623662,8.31528767 C42.6466373,8.15554795 42.8975282,7.69271233 42.8975282,7.69271233" id="Fill-4"></path>
                        <path d="M53.2189789,13.9802192 C51.7591338,13.9773836 50.8581056,12.9196986 50.8616303,11.4095753 C50.8651549,9.87550685 51.7703486,8.84775342 53.2301937,8.85090411 C54.6926021,8.85373973 55.5692782,9.88527397 55.5657535,11.4193425 C55.5625493,12.9297808 54.6817077,13.9833699 53.2189789,13.9802192 Z M53.2359613,6.07105479 C50.0192394,6.06412329 47.5055246,8.28913699 47.4984754,11.4023288 C47.4917465,14.494726 49.996169,16.7052466 53.2128908,16.7121781 C56.4296127,16.7187945 58.9215387,14.5189863 58.9279472,11.426274 C58.9346761,8.31308219 56.4526831,6.07767123 53.2359613,6.07105479 L53.2359613,6.07105479 Z" id="Fill-5"></path>
                        <path d="M71.5208732,10.543137 C71.7916303,9.3209863 72.6692676,8.74661644 73.9615317,8.74945205 C75.2534754,8.75228767 75.9814754,9.42684932 76.1250246,10.552589 L71.5208732,10.543137 Z M73.9426268,6.11453425 C70.7259049,6.10791781 68.2112289,8.30867123 68.2041796,11.3982329 C68.1977711,14.5372603 70.5807535,16.748726 74.2864401,16.7562877 C76.4550599,16.7610137 77.7229718,16.1154384 78.723331,15.253726 L76.851743,13.2612329 C76.3390669,13.620411 75.436757,14.0722192 74.2422218,14.0696986 C72.7551408,14.0665479 71.8810282,13.4663425 71.565412,12.410863 L79.4365915,12.4275616 C79.6881232,8.86130137 77.670743,6.12241096 73.9426268,6.11453425 L73.9426268,6.11453425 Z" id="Fill-6"></path>
                        <path d="M88.1181197,11.8235753 C88.1152359,13.1181918 87.3811479,13.8595479 86.0667746,13.8567123 C84.8965915,13.8541918 84.3352113,13.1808904 84.3377746,12.0305753 L84.3502711,6.34610959 L81.0620951,6.34610959 L81.0492782,12.2400959 C81.0428697,15.1396712 82.6472254,16.7742466 84.9145352,16.7789726 C86.3509894,16.7818082 87.6970845,15.9878356 88.3347254,14.7666301 C89.0694542,16.7184795 91.3970035,16.840411 91.3970035,16.840411 L91.4197535,6.34610959 L88.1299754,6.34610959 L88.1181197,11.8235753" id="Fill-7"></path>
                        <path d="M98.6702746,10.216726 C97.2568908,9.90134247 96.6009859,9.82793151 96.6022676,9.25261644 C96.6032289,8.84617808 96.9662676,8.65682192 97.7240669,8.65871233 C98.5030141,8.66028767 99.2326162,9.01946575 99.7212606,9.42716438 L101.478458,7.58684932 C100.627415,6.7219863 99.411412,6.16841096 97.705162,6.16463014 C95.4868768,6.16021918 93.6806549,7.09093151 93.6755282,9.39219178 C93.6710423,11.5236301 95.2548908,12.2952329 96.6679542,12.6575616 C98.3469683,13.0923562 99.0054366,13.0939315 99.0041549,13.6453014 C99.0031937,14.0766301 98.6616232,14.2669315 97.5907711,14.264726 C96.6147641,14.2625205 95.7166197,13.8538767 95.010088,13.1793151 L93.0805035,14.8523288 C93.9783275,15.9090685 95.3904296,16.8007123 97.8025704,16.8060685 C101.067676,16.813 102.07156,15.2779863 102.075405,13.4121507 C102.080211,11.2539315 100.182028,10.5557397 98.6702746,10.216726" id="Fill-8"></path>
                        <path d="M118.012901,16.4812329 L119.610528,16.4812329 L119.610528,6.34579452 L118.012901,6.34579452 L118.012901,16.4812329 Z M117.735736,3.87156164 C117.735736,3.03316438 118.738338,2.40806849 119.55862,3.10090411 C119.653465,3.18093151 119.729405,3.27891781 119.779711,3.39108219 C120.136342,4.18536986 119.553813,4.91916438 118.801141,4.91916438 C118.226303,4.91916438 117.735736,4.45821918 117.735736,3.87156164 L117.735736,3.87156164 Z" id="Fill-9"></path>
                        <path d="M121.831056,15.1406164 L122.661912,14.0098356 C123.343771,14.7849041 124.643085,15.4547397 126.049099,15.4547397 C127.625577,15.4547397 128.477901,14.7218904 128.477901,13.7165068 C128.477901,11.265589 122.108542,12.7738219 122.108542,9.02450685 C122.108542,7.45357534 123.493088,6.1129589 125.942718,6.1129589 C127.689662,6.1129589 128.925211,6.76231507 129.756067,7.5789726 L129.010444,8.66847945 C128.392669,7.935 127.2635,7.39056164 125.942718,7.39056164 C124.536704,7.39056164 123.663553,8.08182192 123.663553,8.98260274 C123.663553,11.2028904 130.032592,9.73687671 130.032592,13.6746027 C130.032592,15.3712466 128.648046,16.7326575 125.985014,16.7326575 C124.302475,16.7326575 122.875313,16.2298082 121.831056,15.1406164" id="Fill-10"></path>
                        <path d="M131.635665,11.412411 C131.635665,8.41705479 133.70175,6.1129589 136.769796,6.1129589 C138.643947,6.1129589 139.751648,6.86691781 140.539887,7.87230137 L139.475123,8.83609589 C138.793585,7.91420548 137.919472,7.51627397 136.854708,7.51627397 C134.660775,7.51627397 133.297697,9.1710137 133.297697,11.412411 C133.297697,13.6538082 134.660775,15.3293425 136.854708,15.3293425 C137.919472,15.3293425 138.793585,14.9103014 139.475123,14.0098356 L140.539887,14.9733151 C139.751648,15.9783836 138.643947,16.7326575 136.769796,16.7326575 C133.70175,16.7326575 131.635665,14.4285616 131.635665,11.412411" id="Fill-11"></path>
                        <path d="M150.704651,11.412411 C150.704651,9.35973973 149.49057,7.51627397 147.296317,7.51627397 C145.101743,7.51627397 143.866835,9.35973973 143.866835,11.412411 C143.866835,13.4858767 145.101743,15.3293425 147.296317,15.3293425 C149.49057,15.3293425 150.704651,13.4858767 150.704651,11.412411 Z M142.204803,11.412411 C142.204803,8.47975342 144.164827,6.1129589 147.296317,6.1129589 C150.427806,6.1129589 152.387511,8.47975342 152.387511,11.412411 C152.387511,14.3450685 150.427806,16.7326575 147.296317,16.7326575 C144.164827,16.7326575 142.204803,14.3450685 142.204803,11.412411 L142.204803,11.412411 Z" id="Fill-12"></path>
                        <polyline id="Fill-13" points="157.379053 16.4812329 153.097567 6.34579452 154.822401 6.34579452 158.252204 14.6591918 161.660539 6.34579452 163.407482 6.34579452 159.125996 16.4812329 157.379053 16.4812329"></polyline>
                        <path d="M168.94887,7.41167123 C166.754937,7.41167123 165.668384,9.23371233 165.583151,10.7838493 L172.336056,10.7838493 C172.314588,9.27561644 171.29244,7.41167123 168.94887,7.41167123 Z M163.900292,11.412411 C163.900292,8.47975342 166.030782,6.1129589 168.970338,6.1129589 C172.08068,6.1129589 173.912215,8.50086301 173.912215,11.5378082 L173.912215,11.9360548 L165.583151,11.9360548 C165.711,13.8419041 167.074398,15.4339452 169.29012,15.4339452 C170.461264,15.4339452 171.654518,14.9733151 172.463585,14.1563425 L173.230676,15.1825205 C172.208208,16.1882192 170.823662,16.7326575 169.140482,16.7326575 C166.094546,16.7326575 163.900292,14.5750685 163.900292,11.412411 L163.900292,11.412411 Z" id="Fill-14"></path>
                        <path d="M181.801658,6.24056164 C181.583771,6.19141096 181.350504,6.15580822 181.084873,6.15486301 L181.082951,6.15486301 C179.678859,6.15580822 178.486887,6.92961644 177.656673,7.99675342 C177.463458,6.92363014 176.615299,6.30578082 176.060968,6.15486301 L176.058085,16.4812329 L177.655391,16.4812329 L177.655391,9.31783562 C177.799581,9.06641096 178.027081,8.81687671 178.301042,8.59191781 C178.916574,8.08623288 179.767937,7.705 180.445951,7.705 C180.49882,7.705 180.548165,7.70626027 180.596229,7.70815068 C180.786239,7.70972603 181.010535,7.74847945 181.237715,7.80645205 L181.801658,6.24056164" id="Fill-15"></path>
                        <path d="M113.636891,13.7373014 C113.061732,14.6169726 111.826183,15.3293425 110.548018,15.3293425 C108.481613,15.3293425 107.246063,13.6746027 107.246063,11.4332055 C107.246063,9.19212329 108.481613,7.51627397 110.548018,7.51627397 C111.826183,7.51627397 113.061732,8.27054795 113.636891,9.15021918 M113.636891,3.27545205 L113.636891,7.89309589 C112.805715,6.78342466 111.549018,6.1129589 110.164151,6.1129589 C107.459144,6.1129589 105.584673,8.20753425 105.584673,11.4332055 C105.584673,14.7218904 107.480292,16.7326575 110.164151,16.7326575 C111.613423,16.7326575 112.869799,15.9994932 113.636891,14.9733151 L113.636891,16.4812329 L115.234838,16.4812329 L115.234838,1.25554795 C114.398535,1.48365753 113.777236,2.09961644 113.636891,3.27545205" id="Fill-16"></path>
                        <path d="M20.9895986,9.62628767 L11.2429859,0.0425342466 C10.0596655,1.20576712 10.1650845,3.19920548 11.4611937,4.53730137 L11.4631162,4.53887671 C11.4852254,4.56156164 15.834,8.83672603 15.834,8.83672603 C17.3223627,10.3005342 17.3223627,12.6739452 15.834,14.1377534 C15.834,14.1377534 14.6718275,15.2745205 14.6497183,15.2962603 C13.2888838,16.6340411 13.1619965,18.6778904 14.3658239,19.8612877 L20.9895986,13.3481918 C22.0348169,12.3204384 22.0348169,10.6540411 20.9895986,9.62628767" id="Fill-17"></path>
                        <path d="M13.3315,9.15431507 C12.0212923,7.866 9.89689085,7.866 8.5866831,9.15431507 C7.27647535,10.4426301 7.27647535,12.5315342 8.5866831,13.8201644 C9.89689085,15.1081644 12.0212923,15.1081644 13.3315,13.8201644 C14.6417077,12.5315342 14.6417077,10.4426301 13.3315,9.15431507" id="Fill-18"></path>
                        <path d="M10.4569894,18.4371781 L10.4550669,18.4352877 C10.4332782,18.4129178 6.08450352,14.1377534 6.08450352,14.1377534 C4.59582042,12.6739452 4.59582042,10.3005342 6.08450352,8.83672603 C6.08450352,8.83672603 7.24635563,7.6999589 7.26846479,7.67790411 C8.62897887,6.34043836 8.75618662,4.29658904 7.55235915,3.11319178 L0.928584507,9.62628767 C-0.11631338,10.6540411 -0.11631338,12.3204384 0.928584507,13.3481918 L10.6751972,22.9319452 C11.8585176,21.7687123 11.7527782,19.775274 10.4569894,18.4371781" id="Fill-19"></path>
                    </g>
                </g>
            </g>
        </g>
    </g>
</svg>